:FULLY-SPECIFIED
:FORCE-ALL-JOINTS-BE-3DOF
:DEGREES
1
root 6.24314 16.836 -28.1378 9.0217 -2.52979 -3.05774
lfemur -20.3712 2.30257 -19.9954
ltibia 35.927 0 0
lfoot -38.654 3.93715 0
ltoes 38.9541 0 0
rfemur -19.4747 0.22019 19.5256
rtibia 36.0342 0 0
rfoot -30.3779 -10.4967 0
rtoes 21.4483 0 0
lowerback -2.05144 3.66971 -5.03766
upperback -2.66728 5.00355 3.49279
thorax -2.36397 2.67023 6.42441
lowerneck -9.84699 -2.36864 1.94815
upperneck -1.37933 -3.32542 -1.65382
head 1.16433 -1.69823 -0.975663
lclavicle -1.65488e-14 -3.69739e-14 0
lhumerus -41.7253 -10.8128 99.8312
lradius 34.5094 0 0
lwrist 2.17521 0 0
lhand -10.5949 9.65639 0
lfingers 7.12502 0 0
lthumb 15.4107 39.062 0
rclavicle -1.65488e-14 -3.69739e-14 0
rhumerus -43.273 -4.86223 -84.2703
rradius 40.4763 0 0
rwrist 9.89469 0 0
rhand -23.7965 -22.476 0
rfingers 7.12502 0 0
rthumb 2.67393 -52.439 0
2
root 6.23525 16.838 -28.1358 9.05202 -2.50916 -3.03534
lfemur -20.3622 2.28094 -19.9869
ltibia 35.8593 0 0
lfoot -38.5754 3.9479 0
ltoes 38.877 0 0
rfemur -19.3886 0.452395 19.5287
rtibia 35.859 0 0
rfoot -30.2871 -10.7734 0
rtoes 21.259 0 0
lowerback -2.15849 3.63537 -4.9118
upperback -2.64485 4.95559 3.41282
thorax -2.26044 2.64106 6.27793
lowerneck -9.83821 -2.34676 1.96881
upperneck -1.41441 -3.2992 -1.58029
head 1.15259 -1.68406 -0.954661
lclavicle -1.69804e-14 -3.5677e-14 0
lhumerus -41.72 -10.8711 99.7463
lradius 34.6331 0 0
lwrist 2.27816 0 0
lhand -10.6078 9.5559 0
lfingers 7.12502 0 0
lthumb 15.3983 38.9625 0
rclavicle -1.69804e-14 -3.5677e-14 0
rhumerus -43.1928 -4.86918 -84.4036
rradius 40.4366 0 0
rwrist 9.93055 0 0
rhand -23.8953 -22.3943 0
rfingers 7.12502 0 0
rthumb 2.57855 -52.3578 0
3
root 6.22735 16.8401 -28.1338 9.08233 -2.48853 -3.01294
lfemur -20.3532 2.25931 -19.9783
ltibia 35.7917 0 0
lfoot -38.4967 3.95866 0
ltoes 38.8 0 0
rfemur -19.3026 0.6846 19.5318
rtibia 35.6837 0 0
rfoot -30.1963 -11.0502 0
rtoes 21.0697 0 0
lowerback -2.26555 3.60103 -4.78594
upperback -2.62242 4.90762 3.33286
thorax -2.15691 2.61189 6.13145
lowerneck -9.82944 -2.32489 1.98947
upperneck -1.4495 -3.27298 -1.50676
head 1.14085 -1.66989 -0.933659
lclavicle -1.74121e-14 -3.43801e-14 0
lhumerus -41.7147 -10.9293 99.6615
lradius 34.7568 0 0
lwrist 2.38111 0 0
lhand -10.6206 9.45541 0
lfingers 7.12502 0 0
lthumb 15.3859 38.8629 0
rclavicle -1.74121e-14 -3.43801e-14 0
rhumerus -43.1127 -4.87613 -84.5368
rradius 40.3968 0 0
rwrist 9.96642 0 0
rhand -23.994 -22.3126 0
rfingers 7.12502 0 0
rthumb 2.48318 -52.2766 0
4
root 6.21946 16.8421 -28.1318 9.11265 -2.46791 -2.99054
lfemur -20.3441 2.23768 -19.9698
ltibia 35.724 0 0
lfoot -38.4181 3.96941 0
ltoes 38.7229 0 0
rfemur -19.2165 0.916805 19.5349
rtibia 35.5085 0 0
rfoot -30.1055 -11.3269 0
rtoes 20.8804 0 0
lowerback -2.3726 3.56669 -4.66008
upperback -2.59999 4.85966 3.25289
thorax -2.05338 2.58272 5.98497
lowerneck -9.82066 -2.30301 2.01012
upperneck -1.48458 -3.24676 -1.43323
head 1.12911 -1.65572 -0.912658
lclavicle -1.78437e-14 -3.30832e-14 0
lhumerus -41.7094 -10.9876 99.5766
lradius 34.8806 0 0
lwrist 2.48405 0 0
lhand -10.6335 9.35493 0
lfingers 7.12502 0 0
lthumb 15.3735 38.7634 0
rclavicle -1.78437e-14 -3.30832e-14 0
rhumerus -43.0325 -4.88308 -84.6701
rradius 40.3571 0 0
rwrist 10.0023 0 0
rhand -24.0928 -22.2308 0
rfingers 7.12502 0 0
rthumb 2.3878 -52.1954 0
5
root 6.21157 16.8441 -28.1297 9.14296 -2.44728 -2.96814
lfemur -20.3351 2.21605 -19.9613
ltibia 35.6563 0 0
lfoot -38.3394 3.98016 0
ltoes 38.6459 0 0
rfemur -19.1304 1.14901 19.538
rtibia 35.3332 0 0
rfoot -30.0147 -11.6037 0
rtoes 20.6911 0 0
lowerback -2.47966 3.53235 -4.53421
upperback -2.57756 4.8117 3.17293
thorax -1.94984 2.55354 5.83849
lowerneck -9.81189 -2.28114 2.03078
upperneck -1.51967 -3.22055 -1.35969
head 1.11737 -1.64155 -0.891656
lclavicle -1.82753e-14 -3.17863e-14 0
lhumerus -41.7041 -11.0459 99.4918
lradius 35.0043 0 0
lwrist 2.587 0 0
lhand -10.6464 9.25444 0
lfingers 7.12502 0 0
lthumb 15.3611 38.6638 0
rclavicle -1.82753e-14 -3.17863e-14 0
rhumerus -42.9523 -4.89003 -84.8033
rradius 40.3173 0 0
rwrist 10.0381 0 0
rhand -24.1915 -22.1491 0
rfingers 7.12502 0 0
rthumb 2.29243 -52.1142 0
6
root 6.20368 16.8461 -28.1277 9.17328 -2.42665 -2.94574
lfemur -20.3261 2.19442 -19.9527
ltibia 35.5886 0 0
lfoot -38.2608 3.99091 0
ltoes 38.5688 0 0
rfemur -19.0443 1.38121 19.5411
rtibia 35.158 0 0
rfoot -29.9239 -11.8804 0
rtoes 20.5018 0 0
lowerback -2.58671 3.49801 -4.40835
upperback -2.55513 4.76374 3.09296
thorax -1.84631 2.52437 5.69201
lowerneck -9.80311 -2.25926 2.05144
upperneck -1.55475 -3.19433 -1.28616
head 1.10563 -1.62738 -0.870654
lclavicle -1.8707e-14 -3.04894e-14 0
lhumerus -41.6988 -11.1041 99.4069
lradius 35.128 0 0
lwrist 2.68995 0 0
lhand -10.6593 9.15395 0
lfingers 7.12502 0 0
lthumb 15.3487 38.5643 0
rclavicle -1.8707e-14 -3.04894e-14 0
rhumerus -42.8721 -4.89698 -84.9366
rradius 40.2776 0 0
rwrist 10.074 0 0
rhand -24.2903 -22.0674 0
rfingers 7.12502 0 0
rthumb 2.19705 -52.033 0
7
root 6.19578 16.8482 -28.1257 9.20359 -2.40602 -2.92334
lfemur -20.3171 2.1728 -19.9442
ltibia 35.521 0 0
lfoot -38.1821 4.00167 0
ltoes 38.4918 0 0
rfemur -18.9583 1.61342 19.5442
rtibia 34.9828 0 0
rfoot -29.8331 -12.1572 0
rtoes 20.3125 0 0
lowerback -2.69377 3.46367 -4.28249
upperback -2.5327 4.71577 3.013
thorax -1.74278 2.4952 5.54553
lowerneck -9.79434 -2.23739 2.0721
upperneck -1.58983 -3.16811 -1.21263
head 1.09389 -1.61321 -0.849652
lclavicle -1.91386e-14 -2.91925e-14 0
lhumerus -41.6934 -11.1624 99.3221
lradius 35.2517 0 0
lwrist 2.7929 0 0
lhand -10.6721 9.05346 0
lfingers 7.12502 0 0
lthumb 15.3363 38.4647 0
rclavicle -1.91386e-14 -2.91925e-14 0
rhumerus -42.792 -4.90394 -85.0698
rradius 40.2378 0 0
rwrist 10.1099 0 0
rhand -24.389 -21.9857 0
rfingers 7.12502 0 0
rthumb 2.10168 -51.9519 0
8
root 6.18789 16.8502 -28.1237 9.23391 -2.3854 -2.90094
lfemur -20.3081 2.15117 -19.9357
ltibia 35.4533 0 0
lfoot -38.1035 4.01242 0
ltoes 38.4147 0 0
rfemur -18.8722 1.84562 19.5473
rtibia 34.8075 0 0
rfoot -29.7423 -12.4339 0
rtoes 20.1232 0 0
lowerback -2.80082 3.42933 -4.15663
upperback -2.51027 4.66781 2.93303
thorax -1.63925 2.46603 5.39905
lowerneck -9.78556 -2.21551 2.09276
upperneck -1.62492 -3.14189 -1.1391
head 1.08215 -1.59904 -0.82865
lclavicle -1.95702e-14 -2.78955e-14 0
lhumerus -41.6881 -11.2207 99.2372
lradius 35.3755 0 0
lwrist 2.89585 0 0
lhand -10.685 8.95298 0
lfingers 7.12502 0 0
lthumb 15.3239 38.3652 0
rclavicle -1.95702e-14 -2.78955e-14 0
rhumerus -42.7118 -4.91089 -85.2031
rradius 40.1981 0 0
rwrist 10.1457 0 0
rhand -24.4878 -21.9039 0
rfingers 7.12502 0 0
rthumb 2.0063 -51.8707 0
9
root 6.18 16.8522 -28.1217 9.26423 -2.36477 -2.87855
lfemur -20.299 2.12954 -19.9271
ltibia 35.3856 0 0
lfoot -38.0249 4.02317 0
ltoes 38.3377 0 0
rfemur -18.7861 2.07783 19.5504
rtibia 34.6323 0 0
rfoot -29.6515 -12.7107 0
rtoes 19.9338 0 0
lowerback -2.90787 3.39499 -4.03077
upperback -2.48783 4.61985 2.85306
thorax -1.53572 2.43686 5.25258
lowerneck -9.77679 -2.19364 2.11341
upperneck -1.66 -3.11567 -1.06557
head 1.07041 -1.58487 -0.807649
lclavicle -2.00019e-14 -2.65986e-14 0
lhumerus -41.6828 -11.2789 99.1524
lradius 35.4992 0 0
lwrist 2.99879 0 0
lhand -10.6979 8.85249 0
lfingers 7.12502 0 0
lthumb 15.3115 38.2656 0
rclavicle -2.00019e-14 -2.65986e-14 0
rhumerus -42.6316 -4.91784 -85.3363
rradius 40.1584 0 0
rwrist 10.1816 0 0
rhand -24.5865 -21.8222 0
rfingers 7.12502 0 0
rthumb 1.91093 -51.7895 0
